<svg xmlns="http://www.w3.org/2000/svg" version="1.1" xmlns:xlink="http://www.w3.org/1999/xlink" xmlns:svgjs="http://svgjs.com/svgjs" width="100%" height="100%" viewBox="0 0 1000 600"><rect width="1000" height="600" x="0" y="0" fill="#000000"/><g><rect width="333.3333333333333" height="333.3333333333333" rx="13.333333333333334" ry="13.333333333333334" y="214.53900468803937" fill="#d3d3d3" transform="matrix(0.6499692417713143,0,0,0.6499692417713142,0,52.22802840413057)" x="192.31675720214844"/><path d="M350.4326300951815 320.9286797081558L277.35956662067065 320.9286797081558L277.35956662067065 379.45939062469853L339.14198369924344 379.45939062469853L339.14198369924344 394.2125019153909L277.35956662067065 394.2125019153909L277.35956662067065 456.20567772668784L260.67951834507153 456.20567772668784L260.67951834507153 306.2056768078526L350.4326300951815 306.2056768078526L350.4326300951815 320.9286797081558ZM395.0833730423176 456.20567772668784L395.0833730423176 321.13943844088004L348.8971021853339 321.13943844088004L348.8971021853339 306.2056768078526L457.2873075863388 306.2056768078526L457.2873075863388 321.13943844088004L411.55266258519254 321.13943844088004L411.55266258519254 456.20567772668784L395.0833730423176 456.20567772668784Z " fill="#000000" transform="matrix(0.6499692417713143,0,0,0.6499692417713142,0,52.22802840413057)"/><path d="M675.051674410553 321.2101119740567L621.2617810360757 321.2101119740567L621.2617810360757 364.2952181627605L666.740504235263 364.2952181627605L666.740504235263 375.1551471918062L621.2617810360757 375.1551471918062L621.2617810360757 420.7890122342655L608.9834122971139 420.7890122342655L608.9834122971139 310.37234606547844L675.051674410553 310.37234606547844L675.051674410553 321.2101119740567ZM702.9772061995277 422.38475690792126Q691.9621353272099 422.38475690792126 686.221887126143 416.1569200565705Q680.4816389250759 409.9290832052198 680.4816389250759 398.2934449598137L680.4816389250759 398.2934449598137Q680.4816389250759 386.79078543721226 686.2883764875453 381.2056790794174Q692.117277170482 375.6205727216224 704.8832345597276 374.35727485497836L704.8832345597276 374.35727485497836L729.9497238084024 371.9636578444948L729.9497238084024 365.0930904995883Q729.9497238084024 349.9335160998592 716.8513196121453 349.9335160998592L716.8513196121453 349.9335160998592Q703.9302203796276 349.9335160998592 685.4240147893152 352.01684942379865L685.4240147893152 352.01684942379865L684.9364261390314 342.90780691168067Q702.0241920194278 339.4060338778251 716.0534472753175 339.4060338778251L716.0534472753175 339.4060338778251Q729.6172770013908 339.4060338778251 735.7564613708718 345.5452182473061Q741.9178088608202 351.68440261678694 741.9178088608202 365.0930904995883L741.9178088608202 365.0930904995883L741.9178088608202 405.93972152108057Q742.3832343906364 411.85727468588715 751.1598300957427 412.9654307092591L751.1598300957427 412.9654307092591L750.6944045659264 422.38475690792126Q738.083589019953 422.38475690792126 731.7006103253302 416.00177821329845L731.7006103253302 416.00177821329845Q717.494050105701 422.38475690792126 702.9772061995277 422.38475690792126L702.9772061995277 422.38475690792126ZM704.8832345597276 412.3227002157034Q715.5880217455012 412.3227002157034 726.2706458108073 408.66578533857574L726.2706458108073 408.66578533857574L729.9497238084024 407.38032435146425L729.9497238084024 381.0505372361452L706.3238373901112 383.2890124033567Q699.1429863586606 383.93174289691245 695.9514970113491 387.433515930768Q692.7600076640379 390.957452085091 692.7600076640379 397.65071446625797L692.7600076640379 397.65071446625797Q692.7600076640379 412.3227002157034 704.8832345597276 412.3227002157034L704.8832345597276 412.3227002157034ZM765.5215321586439 420.7890122342655L765.5215321586439 341.00177855148087L777.3344753677895 341.00177855148087L777.3344753677895 346.58688490927574Q789.3025604202072 339.4060338778251 801.270645472625 339.4060338778251L801.270645472625 339.4060338778251Q807.8087660105198 339.4060338778251 813.0835886817706 341.4007147198948Q818.3362482325539 343.39539556196434 821.3725957365932 347.53989908937564L821.3725957365932 347.53989908937564Q827.2901489013998 344.0381260555201 835.2688722696782 341.71099840643893Q843.2475956379567 339.4060338778251 851.5366026927794 339.4060338778251L851.5366026927794 339.4060338778251Q861.2662125779856 339.4060338778251 866.6961770925085 343.3067430800946Q872.1261416070312 347.2296154028315 874.4311061356451 355.6737643009263Q876.7582337847263 364.1400763194884 876.7582337847263 378.65692022566174L876.7582337847263 378.65692022566174L876.7582337847263 420.7890122342655L864.7901487323086 420.7890122342655L864.7901487323086 378.98936703267333Q864.7901487323086 367.64184935334396 863.504687745197 361.59131746573274Q862.2192267580855 355.5186224576542 858.8061062060997 352.81472176062647Q855.3708225336464 350.0886579431313 848.6553970320122 350.0886579431313L848.6553970320122 350.0886579431313Q843.2475956379567 350.0886579431313 837.6624892801618 351.46277141211255Q832.0773829223668 352.81472176062647 828.5534467680438 354.5656082775542L828.5534467680438 354.5656082775542L825.5170992640045 356.0062111079379Q827.6004325879439 361.1037288154491 827.6004325879439 379.2996507192175L827.6004325879439 379.2996507192175L827.6004325879439 420.7890122342655L815.6323475355263 420.7890122342655L815.6323475355263 379.60993440576163Q815.6323475355263 367.8191543170835 814.3468865484148 361.65780682713506Q813.0835886817706 355.5186224576542 809.7369574911871 352.81472176062647Q806.3681631801363 350.0886579431313 799.6749007989692 350.0886579431313L799.6749007989692 350.0886579431313Q794.4000781277185 350.0886579431313 788.9922767336631 351.46277141211255Q783.5623122191403 352.81472176062647 780.2156810285568 354.5656082775542L780.2156810285568 354.5656082775542L777.4896172110617 356.0062111079379L777.4896172110617 420.7890122342655L765.5215321586439 420.7890122342655ZM898.9213542521665 420.7890122342655L898.9213542521665 420.7890122342655ZM898.9213542521665 420.7890122342655L898.9213542521665 341.00177855148087L910.7342974613122 341.00177855148087L910.7342974613122 420.7890122342655L898.9213542521665 420.7890122342655ZM898.9213542521665 322.96099849098454L898.9213542521665 309.0868850783669L910.7342974613122 309.0868850783669L910.7342974613122 322.96099849098454L898.9213542521665 322.96099849098454ZM934.6704675661475 420.7890122342655L934.6704675661475 306.20567941759964L946.6385526185652 306.20567941759964L946.6385526185652 420.7890122342655L934.6704675661475 420.7890122342655ZM984.2936942927462 456.205678741235L994.6660346715081 420.7890122342655L982.8752545828299 420.7890122342655L960.2023823446385 341.00177855148087L972.1704673970563 341.00177855148087L992.1172758177526 410.41667185550347L997.3920984890032 410.41667185550347L1017.4940487529715 341.00177855148087L1029.4621338053894 341.00177855148087L996.2617793451639 456.205678741235L984.2936942927462 456.205678741235ZM1104.462133467207 420.7890122342655L1104.462133467207 321.3652538173288L1070.4639066701534 321.3652538173288L1070.4639066701534 310.37234606547844L1150.2511403529384 310.37234606547844L1150.2511403529384 321.3652538173288L1116.5853603628966 321.3652538173288L1116.5853603628966 420.7890122342655L1104.462133467207 420.7890122342655ZM1150.095998509666 420.7890122342655L1150.095998509666 341.00177855148087L1161.9089417188118 341.00177855148087L1161.9089417188118 351.86170758052657Q1175.6279132881573 342.44238138186444 1191.119934494898 339.25089203455303L1191.119934494898 339.25089203455303L1191.119934494898 351.3741189302428Q1184.8920976435475 352.6595799173544 1177.6225941302268 355.27482813251225Q1170.375253737374 357.91223946813767 1166.0534452462232 360.1507146353492L1166.0534452462232 360.1507146353492L1162.0640835620839 362.2340479592885L1162.0640835620839 420.7890122342655L1150.095998509666 420.7890122342655ZM1233.562310190046 422.38475690792126Q1215.3663882862777 422.38475690792126 1207.7866010864132 412.8989413478568Q1200.2068138865484 403.390962667325 1200.2068138865484 382.97872871681255L1200.2068138865484 382.97872871681255Q1200.2068138865484 360.7934451289049 1208.340679098099 350.0886579431313Q1216.47454430965 339.4060338778251 1233.8725938765901 339.4060338778251L1233.8725938765901 339.4060338778251Q1249.830040613147 339.4060338778251 1257.7422746200232 348.5815657513454Q1265.632345506432 357.7570976248656 1265.632345506432 376.7508918654618L1265.632345506432 376.7508918654618L1264.9896150128761 385.83777125711237L1212.3300407822385 385.83777125711237Q1212.3300407822385 395.74468610605805 1214.47986346758 401.32979246385304Q1216.651849273389 406.9148988216479 1221.8380194627703 409.3750051935338Q1227.024189652151 411.85727468588715 1236.2662108870736 411.85727468588715L1236.2662108870736 411.85727468588715Q1240.8983030647687 411.85727468588715 1246.9709980728471 411.6134803607453Q1253.0215299604583 411.3696860356035 1257.9639058246976 410.90426050578725L1257.9639058246976 410.90426050578725L1262.5959980023927 410.41667185550347L1262.928444809404 419.8359980541656Q1245.197948435452 422.38475690792126 1233.562310190046 422.38475690792126L1233.562310190046 422.38475690792126ZM1212.1748989389662 376.26330321517815L1253.6642604540143 376.26330321517815Q1253.6642604540143 361.7464593090048 1249.0321682763192 355.60727493952396Q1244.4000760986241 349.468090570043 1233.8725938765901 349.468090570043L1233.8725938765901 349.468090570043Q1222.8575230042725 349.468090570043 1217.604863453489 355.9175586260681Q1212.3300407822385 362.38918980256057 1212.1748989389662 376.26330321517815L1212.1748989389662 376.26330321517815ZM1314.1474162096588 422.38475690792126Q1295.9514943058903 422.38475690792126 1288.3717071060255 412.8989413478568Q1280.7919199061612 403.390962667325 1280.7919199061612 382.97872871681255L1280.7919199061612 382.97872871681255Q1280.7919199061612 360.7934451289049 1288.9257851177117 350.0886579431313Q1297.0596503292622 339.4060338778251 1314.457699896203 339.4060338778251L1314.457699896203 339.4060338778251Q1330.4151466327598 339.4060338778251 1338.3273806396355 348.5815657513454Q1346.2174515260444 357.7570976248656 1346.2174515260444 376.7508918654618L1346.2174515260444 376.7508918654618L1345.574721032489 385.83777125711237L1292.9151468018508 385.83777125711237Q1292.9151468018508 395.74468610605805 1295.0649694871927 401.32979246385304Q1297.2369552930018 406.9148988216479 1302.4231254823826 409.3750051935338Q1307.6092956717634 411.85727468588715 1316.8513169066864 411.85727468588715L1316.8513169066864 411.85727468588715Q1321.483409084381 411.85727468588715 1327.55610409246 411.6134803607453Q1333.6066359800711 411.3696860356035 1338.5490118443104 410.90426050578725L1338.5490118443104 410.90426050578725L1343.181104022005 410.41667185550347L1343.5135508290168 419.8359980541656Q1325.7830544550648 422.38475690792126 1314.1474162096588 422.38475690792126L1314.1474162096588 422.38475690792126ZM1292.760004958579 376.26330321517815L1334.2493664736267 376.26330321517815Q1334.2493664736267 361.7464593090048 1329.6172742959316 355.60727493952396Q1324.985182118237 349.468090570043 1314.457699896203 349.468090570043L1314.457699896203 349.468090570043Q1303.4426290238848 349.468090570043 1298.1899694731014 355.9175586260681Q1292.9151468018508 362.38918980256057 1292.760004958579 376.26330321517815L1292.760004958579 376.26330321517815Z " fill="#ffffff" transform="matrix(0.6499692417713143,0,0,0.6499692417713142,0,52.22802840413057)"/></g></svg>